<?xml version="1.0" encoding="iso-8859-1"?>
<!-- Generator: Adobe Illustrator 19.0.0, SVG Export Plug-In . SVG Version: 6.00 Build 0)  -->
<svg version="1.1" id="Capa_1" xmlns="http://www.w3.org/2000/svg" xmlns:xlink="http://www.w3.org/1999/xlink" x="0px" y="0px"
	 viewBox="0 0 507.32 507.32" style="enable-background:new 0 0 507.32 507.32;" xml:space="preserve">
<g>
	<g>
		<path d="M435.316,280c-3.124-3.123-8.188-3.123-11.312,0l-72,72l11.312,11.312l65.712-65.704
			c10.832,14.369,8.632,34.682-5.024,46.4l-93.656,93.656H165.66c-2.122,0-4.156,0.844-5.656,2.344l-56,56l11.312,11.312
			l53.656-53.656H333.66c2.123-0.003,4.157-0.849,5.656-2.352l96-96C465.108,325.528,448.34,293.024,435.316,280z"/>
	</g>
</g>
<g>
	<g>
		<path d="M368.004,0l-53.656,53.664H149.66c-2.095,0.002-4.106,0.827-5.6,2.296l-97.84,96.048
			c-10.157,9.251-15.996,22.318-16.112,36.056c1.009,14.899,7.431,28.915,18.056,39.408c1.485,1.406,3.451,2.191,5.496,2.192
			c2.122,0,4.156-0.844,5.656-2.344l72-72l-11.312-11.312l-65.832,65.824c-4.803-6.372-7.609-14.025-8.064-21.992
			c0.244-9.38,4.363-18.239,11.376-24.472l95.448-93.704H317.66c2.122,0,4.156-0.844,5.656-2.344l56-56L368.004,0z"/>
	</g>
</g>
<g>
	<g>
		<path d="M469.66,173.664h-24v-24h-16v24h-40c-4.418,0-8,3.582-8,8v64h-32.334c-2.48-30.06-18.808-56.19-42.592-72h42.926
			c2.122,0,4.156-0.844,5.656-2.344l96-96l-11.312-11.312l-93.656,93.656H158.46c1.664-9.496,6.888-24,23.2-24h88v-16h-88
			c-31.64,0-40,31.4-40,48c0,4.418,3.582,8,8,8h50.926c-23.784,15.81-40.111,41.94-42.592,72H117.66h-40c-4.418,0-8,3.582-8,8v32h16
			v-24h24v48h-64v-24h-16v32c0,4.418,3.582,8,8,8h40v16h-16v16h24c4.418,0,8-3.582,8-8v-24h24c4.418,0,8-3.582,8-8v-56h32.334
			c2.48,30.06,18.808,56.19,42.592,72H133.66c-2.122,0-4.156,0.844-5.656,2.344l-96,96l11.312,11.312l93.656-93.656H324.86
			c-1.664,9.496-6.888,24-23.2,24h-88v16h88c31.64,0,40-31.4,40-48c0-4.418-3.582-8-8-8h-26.999
			c23.798-15.809,40.145-41.936,42.656-72h40.343c4.418,0,8-3.582,8-8v-8h48v-16h-48v-40h64v24h16v-32
			C477.66,177.246,474.078,173.664,469.66,173.664z M253.66,333.664c-44.183,0-80-35.817-80-80s35.817-80,80-80
			c44.163,0.048,79.952,35.837,80,80C333.66,297.847,297.843,333.664,253.66,333.664z"/>
	</g>
</g>
<g>
	<g>
		<rect x="429.66" y="117.66" width="16" height="16"/>
	</g>
</g>
<g>
	<g>
		<rect x="461.66" y="229.66" width="16" height="16"/>
	</g>
</g>
<g>
	<g>
		<rect x="29.66" y="253.66" width="16" height="16"/>
	</g>
</g>
<g>
	<g>
		<rect x="29.66" y="341.66" width="16" height="16"/>
	</g>
</g>
<g>
	<g>
		<path d="M285.66,253.664c0,17.673-14.327,32-32,32c-17.673,0-32-14.327-32-32c0-17.673,14.327-32,32-32v-16
			c-26.51,0-48,21.49-48,48s21.49,48,48,48c26.499-0.026,47.974-21.501,48-48H285.66z"/>
	</g>
</g>
<g>
</g>
<g>
</g>
<g>
</g>
<g>
</g>
<g>
</g>
<g>
</g>
<g>
</g>
<g>
</g>
<g>
</g>
<g>
</g>
<g>
</g>
<g>
</g>
<g>
</g>
<g>
</g>
<g>
</g>
</svg>
