<?xml version="1.0" encoding="iso-8859-1"?>
<!-- Generator: Adobe Illustrator 19.0.0, SVG Export Plug-In . SVG Version: 6.00 Build 0)  -->
<svg version="1.1" id="Capa_1" xmlns="http://www.w3.org/2000/svg" xmlns:xlink="http://www.w3.org/1999/xlink" x="0px" y="0px"
	 viewBox="0 0 507.312 507.312" style="enable-background:new 0 0 507.312 507.312;" xml:space="preserve">
<g>
	<g>
		<path d="M349.656,358.663V227.725c0.023-1.261,0.027-2.521,0-3.778v-53.172c9.496,1.664,24,6.888,24,23.2v88h16v-88
			c0-31.64-31.4-40-48-40c-4.418,0-8,3.582-8,8v10.853c-9.552-14.427-23.114-26.453-40-34.192
			c-43.583-19.976-94.344-4.582-120,34.185v-10.845c0-4.418-3.582-8-8-8c-16.6,0-48,8.36-48,40v88h16v-88
			c0-16.216,14.504-21.488,24-23.2v53.311c-0.023,1.261-0.027,2.521,0,3.778v130.8L64,452.319l11.312,11.312l96-96
			c1.5-1.5,2.344-3.534,2.344-5.656v-82.992c9.552,14.427,23.114,26.453,40,34.192v40.8v24c-0.005,0.221-0.005,0.442,0,0.663
			c0.183,8.653,7.347,15.52,16,15.337h16v31.552c-0.376,2.928-5.896,8.448-24,8.448h-16v16h16c16.608,0,26.32-4.062,32-8.845
			c5.68,4.783,15.392,8.845,32,8.845h16v-16h-16c-18.104,0-23.624-5.52-24-8v-32h16c0.221,0.005,0.442,0.005,0.663,0
			c8.654-0.183,15.52-7.347,15.337-16v-24v-40.8c16.359-7.498,30.166-19.41,40-34.246v83.046c0,2.122,0.844,4.156,2.344,5.656l96,96
			l11.312-11.312L349.656,358.663z M277.656,377.975h-48v-16h48V377.975z M277.656,345.975h-48v-16h48V345.975z M333.656,225.303
			c0.236,32.211-19.118,62.718-50.912,75.128c-3.067,1.199-5.087,4.155-5.088,7.448v6.096h-16v-87.359l7.008,5.607
			c1.417,1.133,3.177,1.751,4.992,1.752c1.822,0.007,3.591-0.609,5.016-1.744l20-16l-10-12.496l-15.016,12l-15.024-12
			c-2.921-2.336-7.071-2.336-9.992,0l-14.984,12l-14.984-12l-10,12.48l20,16c2.923,2.34,7.077,2.34,10,0l6.984-5.593v87.353h-16
			v-6.096c-0.001-3.293-2.021-6.249-5.088-7.448c-20.83-8.13-37.306-24.607-45.436-45.436c-3.504-8.977-5.274-18.202-5.476-27.308
			v-1.159c-0.243-32.218,19.112-62.733,50.912-75.146c41.159-16.065,87.548,4.278,103.612,45.436
			c3.504,8.976,5.274,18.201,5.476,27.307V225.303z"/>
	</g>
</g>
<g>
	<g>
		<path d="M453.656,326.663V161.975c-0.003-2.123-0.849-4.157-2.352-5.656l-96-96c-29.8-29.808-62.288-13.024-75.312,0
			c-3.123,3.124-3.123,8.188,0,11.312l72,72l11.312-11.312L297.6,66.607c14.373-10.819,34.676-8.621,46.4,5.024l93.656,93.656
			v164.688c0,2.122,0.844,4.156,2.344,5.656l56,56l11.312-11.312L453.656,326.663z"/>
	</g>
</g>
<g>
	<g>
		<path d="M227.312,60.319c-13.024-13.032-45.528-29.784-75.312,0l-96,96c-1.5,1.5-2.344,3.534-2.344,5.656v164.688L0,380.319
			l11.312,11.312l56-56c1.5-1.5,2.344-3.535,2.344-5.656V165.287l93.656-93.656c11.72-13.653,32.03-15.852,46.4-5.024L144,132.319
			l11.312,11.312l72-72C230.435,68.507,230.435,63.443,227.312,60.319z"/>
	</g>
</g>
<g>
	<g>
		<rect x="173.66" y="433.98" width="16" height="16"/>
	</g>
</g>
<g>
	<g>
		<rect x="317.66" y="433.98" width="16" height="16"/>
	</g>
</g>
<g>
</g>
<g>
</g>
<g>
</g>
<g>
</g>
<g>
</g>
<g>
</g>
<g>
</g>
<g>
</g>
<g>
</g>
<g>
</g>
<g>
</g>
<g>
</g>
<g>
</g>
<g>
</g>
<g>
</g>
</svg>
