<?xml version="1.0" encoding="iso-8859-1"?>
<!-- Generator: Adobe Illustrator 19.0.0, SVG Export Plug-In . SVG Version: 6.00 Build 0)  -->
<svg version="1.1" id="Capa_1" xmlns="http://www.w3.org/2000/svg" xmlns:xlink="http://www.w3.org/1999/xlink" x="0px" y="0px"
	 viewBox="0 0 507.32 507.32" style="enable-background:new 0 0 507.32 507.32;" xml:space="preserve">
<g>
	<g>
		<path d="M341.66,333.664h-200c-2.122,0-4.156,0.844-5.656,2.344l-96,96l11.312,11.312l93.656-93.656H332.86
			c-1.664,9.496-6.888,24-23.2,24h-88v16h88c31.64,0,40-31.4,40-48C349.66,337.246,346.078,333.664,341.66,333.664z"/>
	</g>
</g>
<g>
	<g>
		<path d="M443.316,280c-3.124-3.123-8.188-3.123-11.312,0l-72,72l11.312,11.312l65.712-65.704
			c10.832,14.369,8.632,34.682-5.024,46.4l-93.656,93.656H173.66c-2.122,0-4.156,0.844-5.656,2.344l-56,56l11.312,11.312
			l53.656-53.656H341.66c2.123-0.003,4.157-0.849,5.656-2.352l96-96C473.108,325.528,456.34,293.024,443.316,280z"/>
	</g>
</g>
<g>
	<g>
		<path d="M448.004,64.008l-93.656,93.656H166.46c1.664-9.496,6.888-24,23.2-24h88v-16h-88c-31.64,0-40,31.4-40,48
			c0,4.418,3.582,8,8,8h200c2.122,0,4.156-0.844,5.656-2.344l96-96L448.004,64.008z"/>
	</g>
</g>
<g>
	<g>
		<path d="M376.004,0l-53.656,53.664H157.66c-2.095,0.002-4.106,0.827-5.6,2.296l-97.84,96.048
			c-10.157,9.251-15.996,22.318-16.112,36.056c1.009,14.899,7.431,28.915,18.056,39.408c1.485,1.406,3.451,2.191,5.496,2.192
			c2.122,0,4.156-0.844,5.656-2.344l72-72l-11.312-11.312l-65.832,65.824c-4.803-6.372-7.609-14.025-8.064-21.992
			c0.244-9.38,4.363-18.239,11.376-24.472l95.448-93.704H325.66c2.122,0,4.156-0.844,5.656-2.344l56-56L376.004,0z"/>
	</g>
</g>
<g>
	<g>
		<path d="M480.004,96.008L362.348,213.664H176.972l18.344-18.344l-11.312-11.312l-32,32c-3.123,3.124-3.123,8.188,0,11.312l32,32
			l11.312-11.312l-18.344-18.344H365.66c2.122,0,4.156-0.844,5.656-2.344l120-120L480.004,96.008z"/>
	</g>
</g>
<g>
	<g>
		<path d="M355.316,280.008l-32-32l-11.312,11.312l18.344,18.344H141.66c-2.122,0-4.156,0.844-5.656,2.344l-120,120l11.312,11.312
			l117.656-117.656h185.376l-18.344,18.344l11.312,11.312l32-32C358.439,288.196,358.439,283.132,355.316,280.008z"/>
	</g>
</g>
<g>
</g>
<g>
</g>
<g>
</g>
<g>
</g>
<g>
</g>
<g>
</g>
<g>
</g>
<g>
</g>
<g>
</g>
<g>
</g>
<g>
</g>
<g>
</g>
<g>
</g>
<g>
</g>
<g>
</g>
</svg>
