<?xml version="1.0" encoding="iso-8859-1"?>
<!-- Generator: Adobe Illustrator 19.0.0, SVG Export Plug-In . SVG Version: 6.00 Build 0)  -->
<svg version="1.1" id="Capa_1" xmlns="http://www.w3.org/2000/svg" xmlns:xlink="http://www.w3.org/1999/xlink" x="0px" y="0px"
	 viewBox="0 0 485.498 485.498" style="enable-background:new 0 0 485.498 485.498;" xml:space="preserve">
<g>
	<g>
		<path d="M334.434,311.842h-88v-160h-16v160h-96c-2.122,0-4.156,0.844-5.656,2.344l-96,96l11.312,11.312l93.656-93.656h187.888
			c-1.664,9.496-6.888,24-23.2,24h-88v16h88c31.64,0,40-31.4,40-48C342.434,315.424,338.852,311.842,334.434,311.842z"/>
	</g>
</g>
<g>
	<g>
		<path d="M436.09,258.178c-3.124-3.123-8.188-3.123-11.312,0l-72,72l11.312,11.312l65.712-65.704
			c10.832,14.369,8.632,34.682-5.024,46.4l-93.656,93.656H166.434c-2.122,0-4.156,0.844-5.656,2.344l-56,56l11.312,11.312
			l53.656-53.656h164.688c2.123-0.003,4.157-0.849,5.656-2.352l96-96C465.882,303.706,449.114,271.202,436.09,258.178z"/>
	</g>
</g>
<g>
	<g>
		<path d="M340.682,122.842l-96-120c-0.249-0.286-0.517-0.554-0.802-0.802c-3.451-3.008-8.686-2.648-11.693,0.802l-96,120
			c-1.137,1.42-1.756,3.184-1.755,5.003c0,4.418,3.584,7.998,8.002,7.997h40v112h16v-112h24v-16h-32h-31.352l79.352-99.2
			l79.352,99.2h-31.352c-4.418,0-8,3.582-8,8v120h16v-112h40c1.819,0.001,3.583-0.618,5.003-1.755
			C342.886,131.326,343.443,126.291,340.682,122.842z"/>
	</g>
</g>
<g>
	<g>
		<rect x="182.43" y="263.839" width="16" height="16"/>
	</g>
</g>
<g>
	<g>
		<rect x="278.43" y="263.839" width="16" height="16"/>
	</g>
</g>
<g>
</g>
<g>
</g>
<g>
</g>
<g>
</g>
<g>
</g>
<g>
</g>
<g>
</g>
<g>
</g>
<g>
</g>
<g>
</g>
<g>
</g>
<g>
</g>
<g>
</g>
<g>
</g>
<g>
</g>
</svg>
