<?xml version="1.0" encoding="iso-8859-1"?>
<!-- Generator: Adobe Illustrator 19.0.0, SVG Export Plug-In . SVG Version: 6.00 Build 0)  -->
<svg version="1.1" id="Capa_1" xmlns="http://www.w3.org/2000/svg" xmlns:xlink="http://www.w3.org/1999/xlink" x="0px" y="0px"
	 viewBox="0 0 509.656 509.656" style="enable-background:new 0 0 509.656 509.656;" xml:space="preserve">
<g>
	<g>
		<path d="M346.512,336h-200c-2.122,0-4.156,0.844-5.656,2.344l-96,96l11.312,11.312L149.824,352h187.888
			c-1.664,9.496-6.888,24-23.2,24h-88v16h88c31.64,0,40-31.4,40-48C354.512,339.582,350.93,336,346.512,336z"/>
	</g>
</g>
<g>
	<g>
		<path d="M448.168,282.344c-3.124-3.123-8.188-3.123-11.312,0l-72,72l11.312,11.312l65.712-65.712
			c10.828,14.37,8.629,34.68-5.024,46.4L343.2,440H178.512c-2.122,0-4.156,0.844-5.656,2.344l-56,56l11.312,11.312L181.824,456
			h164.688c2.122,0,4.156-0.844,5.656-2.344l96-96C477.96,327.864,461.192,295.368,448.168,282.344z"/>
	</g>
</g>
<g>
	<g>
		<path d="M346.512,176h-40v-40h-16v40h-24v16h32h31.352l-79.352,99.2L171.16,192h31.352c4.418,0,8-3.582,8-8v-72h-16v64h-40
			c-1.819-0.001-3.583,0.618-5.003,1.755c-3.449,2.761-4.006,7.796-1.245,11.245l96,120c1.519,1.897,3.818,3.001,6.248,3
			c2.43,0.001,4.729-1.103,6.248-3l96-120c1.137-1.42,1.756-3.184,1.755-5.003C354.513,179.579,350.93,175.998,346.512,176z"/>
	</g>
</g>
<g>
	<g>
		<rect x="354.51" y="32" width="96" height="16"/>
	</g>
</g>
<g>
	<g>
		<rect x="50.51" y="32" width="96" height="16"/>
	</g>
</g>
<g>
	<g>
		<rect x="242.51" width="16" height="160"/>
	</g>
</g>
<g>
	<g>
		<path d="M194.512,32h-32v16h32v48h16V48c0.005-0.221,0.005-0.442,0-0.663C210.329,38.684,203.166,31.817,194.512,32z"/>
	</g>
</g>
<g>
	<g>
		<path d="M306.512,32c-0.221-0.005-0.442-0.005-0.663,0c-8.653,0.183-15.52,7.347-15.337,16v72h16V48h32V32H306.512z"/>
	</g>
</g>
<g>
</g>
<g>
</g>
<g>
</g>
<g>
</g>
<g>
</g>
<g>
</g>
<g>
</g>
<g>
</g>
<g>
</g>
<g>
</g>
<g>
</g>
<g>
</g>
<g>
</g>
<g>
</g>
<g>
</g>
</svg>
