<?xml version="1.0" encoding="iso-8859-1"?>
<!-- Generator: Adobe Illustrator 19.0.0, SVG Export Plug-In . SVG Version: 6.00 Build 0)  -->
<svg version="1.1" id="Capa_1" xmlns="http://www.w3.org/2000/svg" xmlns:xlink="http://www.w3.org/1999/xlink" x="0px" y="0px"
	 viewBox="0 0 501.707 501.707" style="enable-background:new 0 0 501.707 501.707;" xml:space="preserve">
<g>
	<g>
		<path d="M342.538,328.051h-200c-2.122,0-4.156,0.844-5.656,2.344l-96,96l11.312,11.312l93.656-93.656h187.888
			c-1.664,9.496-6.888,24-23.2,24h-88v16h88c31.64,0,40-31.4,40-48C350.538,331.633,346.956,328.051,342.538,328.051z"/>
	</g>
</g>
<g>
	<g>
		<path d="M444.194,274.395c-3.124-3.123-8.188-3.123-11.312,0l-72,72l11.312,11.312l65.712-65.712
			c10.828,14.37,8.629,34.68-5.024,46.4l-93.656,93.656H174.538c-2.122,0-4.156,0.844-5.656,2.344l-56,56l11.312,11.312
			l53.656-53.656h164.688c2.122,0,4.156-0.844,5.656-2.344l96-96C473.986,319.914,457.218,287.418,444.194,274.395z"/>
	</g>
</g>
<g>
	<g>
		<path d="M374.538,104.619V56.051c0-4.418-3.582-8-8-8H301.97c-3.532-24.61-22.867-43.944-47.476-47.476
			C223.88-3.82,195.5,17.436,191.106,48.051h-64.568c-4.418,0-8,3.582-8,8v48.568c-24.61,3.532-43.944,22.867-47.476,47.476
			c-4.394,30.614,16.862,58.994,47.476,63.388v48.568c0,4.418,3.582,8,8,8h72c4.418,0,8-3.582,8-8c0-22.091,17.909-40,40-40
			s40,17.909,40,40c0,4.418,3.582,8,8,8h72c4.418,0,8-3.582,8-8v-48.568c24.61-3.532,43.944-22.867,47.476-47.476
			C426.408,137.393,405.152,109.013,374.538,104.619z M366.538,200.051c-4.418,0-8,3.582-8,8v48H301.97
			c-3.532-24.61-22.867-43.944-47.476-47.476c-30.614-4.394-58.994,16.862-63.388,47.476h-56.568v-48c0-4.418-3.582-8-8-8
			c-22.091,0-40-17.909-40-40s17.909-40,40-40c4.418,0,8-3.582,8-8v-48h64c4.418,0,8-3.582,8-8c0-22.091,17.909-40,40-40
			s40,17.909,40,40c0,4.418,3.582,8,8,8h64v48c0,4.418,3.582,8,8,8c22.091,0,40,17.909,40,40S388.629,200.051,366.538,200.051z"/>
	</g>
</g>
<g>
	<g>
		<path d="M158.538,80.051c-4.418,0-8,3.582-8,8v32h16v-24h32v-16H158.538z"/>
	</g>
</g>
<g>
</g>
<g>
</g>
<g>
</g>
<g>
</g>
<g>
</g>
<g>
</g>
<g>
</g>
<g>
</g>
<g>
</g>
<g>
</g>
<g>
</g>
<g>
</g>
<g>
</g>
<g>
</g>
<g>
</g>
</svg>
