<?xml version="1.0" encoding="iso-8859-1"?>
<!-- Generator: Adobe Illustrator 19.0.0, SVG Export Plug-In . SVG Version: 6.00 Build 0)  -->
<svg version="1.1" id="Capa_1" xmlns="http://www.w3.org/2000/svg" xmlns:xlink="http://www.w3.org/1999/xlink" x="0px" y="0px"
	 viewBox="0 0 509.654 509.654" style="enable-background:new 0 0 509.654 509.654;" xml:space="preserve">
<g>
	<g>
		<path d="M345.656,335.998h-200c-2.122,0-4.156,0.844-5.656,2.344l-96,96l11.312,11.312l93.656-93.656h187.888
			c-1.664,9.496-6.888,24-23.2,24h-88v16h88c31.64,0,40-31.4,40-48C353.656,339.58,350.074,335.998,345.656,335.998z"/>
	</g>
</g>
<g>
	<g>
		<path d="M447.312,282.342c-3.124-3.123-8.188-3.123-11.312,0l-72,72l11.312,11.312l65.712-65.712
			c10.828,14.37,8.629,34.68-5.024,46.4l-93.656,93.656H177.656c-2.122,0-4.156,0.844-5.656,2.344l-56,56l11.312,11.312
			l53.656-53.656h164.688c2.122,0,4.156-0.844,5.656-2.344l96-96C477.104,327.862,460.336,295.366,447.312,282.342z"/>
	</g>
</g>
<g>
	<g>
		<path d="M321.656,247.998c-7.495,0-14.382,2.583-19.836,6.899c-6.412-13.535-20.192-22.899-36.164-22.899
			c-15.972,0-29.753,9.364-36.164,22.899c-5.454-4.316-12.341-6.899-19.836-6.899c-17.673,0-32,14.327-32,32s14.327,32,32,32
			c10.763,0,20.278-5.319,26.078-13.466c7.328,8.257,18.014,13.466,29.922,13.466c11.904-0.014,22.584-5.227,29.91-13.483
			c5.799,8.156,15.32,13.483,26.09,13.483c17.673,0,32-14.327,32-32C353.656,262.325,339.329,247.998,321.656,247.998z
			 M209.656,295.998c-8.837,0-16-7.163-16-16c0-8.837,7.163-16,16-16c8.837,0,16,7.163,16,16
			C225.656,288.835,218.493,295.998,209.656,295.998z M265.656,295.998c-13.255,0-24-10.745-24-24s10.745-24,24-24s24,10.745,24,24
			C289.656,285.253,278.911,295.998,265.656,295.998z M321.656,295.998c-8.837,0-16-7.163-16-16c0-8.837,7.163-16,16-16
			c8.837,0,16,7.163,16,16C337.656,288.835,330.493,295.998,321.656,295.998z"/>
	</g>
</g>
<g>
	<g>
		<path d="M463.312,106.342l-40-40L412,77.654l26.344,26.344H329.656c-0.221-0.005-0.442-0.005-0.663,0
			c-8.653,0.183-15.52,7.346-15.337,16v48h16v-48h108.688L412,146.342l11.312,11.312l40-40
			C466.435,114.53,466.435,109.466,463.312,106.342z"/>
	</g>
</g>
<g>
	<g>
		<path d="M271.312,2.342c-3.124-3.123-8.188-3.123-11.312,0l-40,40l11.312,11.312l26.344-26.344v124.688h16V27.31L300,53.654
			l11.312-11.312L271.312,2.342z"/>
	</g>
</g>
<g>
	<g>
		<rect x="313.66" y="184" width="16" height="48"/>
	</g>
</g>
<g>
	<g>
		<rect x="201.66" y="184" width="16" height="48"/>
	</g>
</g>
<g>
	<g>
		<rect x="257.66" y="168" width="16" height="48"/>
	</g>
</g>
<g>
	<g>
		<path d="M201.656,103.998H92.968l26.344-26.344L108,66.342l-40,40c-3.123,3.124-3.123,8.188,0,11.312l40,40l11.312-11.312
			l-26.344-26.344h108.688v48h16v-48c0.005-0.221,0.005-0.442,0-0.663C217.473,110.682,210.31,103.815,201.656,103.998z"/>
	</g>
</g>
<g>
</g>
<g>
</g>
<g>
</g>
<g>
</g>
<g>
</g>
<g>
</g>
<g>
</g>
<g>
</g>
<g>
</g>
<g>
</g>
<g>
</g>
<g>
</g>
<g>
</g>
<g>
</g>
<g>
</g>
</svg>
