<?xml version="1.0" encoding="iso-8859-1"?>
<!-- Generator: Adobe Illustrator 19.0.0, SVG Export Plug-In . SVG Version: 6.00 Build 0)  -->
<svg version="1.1" id="Capa_1" xmlns="http://www.w3.org/2000/svg" xmlns:xlink="http://www.w3.org/1999/xlink" x="0px" y="0px"
	 viewBox="0 0 501.656 501.656" style="enable-background:new 0 0 501.656 501.656;" xml:space="preserve">
<g>
	<g>
		<path d="M342.512,328h-200c-2.122,0-4.156,0.844-5.656,2.344l-96,96l11.312,11.312L145.824,344h187.888
			c-1.664,9.496-6.888,24-23.2,24h-88v16h88c31.64,0,40-31.4,40-48C350.512,331.582,346.93,328,342.512,328z"/>
	</g>
</g>
<g>
	<g>
		<path d="M444.168,274.344c-3.124-3.123-8.188-3.123-11.312,0l-72,72l11.312,11.312l65.712-65.712
			c10.828,14.37,8.629,34.68-5.024,46.4L339.2,432H174.512c-2.122,0-4.156,0.844-5.656,2.344l-56,56l11.312,11.312L177.824,448
			h164.688c2.122,0,4.156-0.844,5.656-2.344l96-96C473.96,319.864,457.192,287.368,444.168,274.344z"/>
	</g>
</g>
<g>
	<g>
		<path d="M390.256,144C386.289,79.682,334.83,28.224,270.512,24.256V0h-16v24.256C190.195,28.224,138.736,79.682,134.769,144
			h-24.256v16h24.256c3.967,64.318,55.426,115.776,119.743,119.744V304h16v-24.265C334.794,275.697,386.21,224.282,390.247,160
			h24.265v-16H390.256z M270.512,40.296c55.45,3.97,99.735,48.254,103.705,103.704h-32.104
			c-3.753-37.794-33.806-67.848-71.601-71.601V40.296z M254.512,40.287v32.112c-37.794,3.753-67.848,33.806-71.601,71.601H150.8
			C154.716,88.521,199.034,44.204,254.512,40.287z M254.513,263.713C199.034,259.796,154.716,215.479,150.8,160h32.112
			c3.753,37.794,33.806,67.848,71.601,71.601V263.713z M254.512,192v23.484c-28.945-3.612-51.872-26.54-55.484-55.484h23.484v-16
			h-23.484c3.612-28.945,26.54-51.872,55.484-55.484V112h16V88.524c28.927,3.639,51.837,26.549,55.476,55.476h-23.476v16h23.484
			c-3.612,28.945-26.54,51.872-55.484,55.484V192H254.512z M270.512,263.713v-32.12c37.773-3.789,67.803-33.819,71.592-71.592h32.12
			C370.309,215.479,325.991,259.796,270.512,263.713z"/>
	</g>
</g>
<g>
	<g>
		<rect x="254.51" y="144" width="16" height="16"/>
	</g>
</g>
<g>
</g>
<g>
</g>
<g>
</g>
<g>
</g>
<g>
</g>
<g>
</g>
<g>
</g>
<g>
</g>
<g>
</g>
<g>
</g>
<g>
</g>
<g>
</g>
<g>
</g>
<g>
</g>
<g>
</g>
</svg>
