<?xml version="1.0" encoding="iso-8859-1"?>
<!-- Generator: Adobe Illustrator 19.0.0, SVG Export Plug-In . SVG Version: 6.00 Build 0)  -->
<svg version="1.1" id="Capa_1" xmlns="http://www.w3.org/2000/svg" xmlns:xlink="http://www.w3.org/1999/xlink" x="0px" y="0px"
	 viewBox="0 0 507.312 507.312" style="enable-background:new 0 0 507.312 507.312;" xml:space="preserve">
<g>
	<g>
		<path d="M452,64l-93.656,93.656H170.456c1.664-9.496,6.888-24,23.2-24h88v-16h-88c-31.64,0-40,31.4-40,48c0,4.418,3.582,8,8,8
			h42.926c-25.871,17.198-42.926,46.605-42.926,80s17.055,62.802,42.926,80h-58.926c-2.122,0-4.156,0.844-5.656,2.344l-96,96
			l11.312,11.312l93.656-93.656h187.888c-1.664,9.496-6.888,24-23.2,24h-88v16h88c31.64,0,40-31.4,40-48c0-4.418-3.582-8-8-8
			h-34.999c25.887-17.196,42.963-46.6,42.999-80c0-33.395-17.055-62.802-42.926-80h50.926c2.122,0,4.156-0.844,5.656-2.344l96-96
			L452,64z M184.331,221.656h25.324v24h-31.6C178.895,237.197,181.064,229.132,184.331,221.656z M209.656,317.657
			c-6.059-4.551-11.45-9.942-16.001-16.001h16.001V317.657z M209.656,285.656h-25.324c-3.268-7.476-5.437-15.541-6.277-24h31.601
			V285.656z M209.656,205.656h-16.001c4.551-6.059,9.942-11.45,16.001-16.001V205.656z M249.656,333.257
			c-8.459-0.84-16.524-3.009-24-6.276v-25.324h24V333.257z M249.656,285.656h-24v-24h24V285.656z M249.656,245.656h-24v-24h24
			V245.656z M249.656,205.656h-24v-25.324c7.476-3.268,15.541-5.437,24-6.277V205.656z M289.656,326.98
			c-7.476,3.268-15.541,5.437-24,6.277v-31.601h24V326.98z M289.656,285.656h-24v-24h24V285.656z M289.656,245.656h-24v-24h24
			V245.656z M289.656,205.657h-24v-0.001v-31.592c8.46,0.849,16.524,3.025,24,6.299V205.657z M305.656,317.657v-16.001h16.001
			C317.106,307.715,311.715,313.106,305.656,317.657z M330.981,285.656h-25.324v-24h31.6
			C336.417,270.115,334.248,278.18,330.981,285.656z M330.95,221.656c3.273,7.476,5.45,15.54,6.298,24h-31.592v-24H330.95z
			 M321.612,205.656h-15.956V189.7C311.695,194.242,317.071,199.617,321.612,205.656z"/>
	</g>
</g>
<g>
	<g>
		<path d="M447.312,280c-3.124-3.123-8.188-3.123-11.312,0l-72,72l11.312,11.312l65.712-65.712c10.828,14.37,8.629,34.68-5.024,46.4
			l-93.656,93.656H177.656c-2.122,0-4.156,0.844-5.656,2.344l-56,56l11.312,11.312l53.656-53.656h164.688
			c2.122,0,4.156-0.844,5.656-2.344l96-96C477.104,325.52,460.336,293.024,447.312,280z"/>
	</g>
</g>
<g>
	<g>
		<path d="M380,0l-53.656,53.656H161.656c-2.122,0-4.156,0.844-5.656,2.344l-96,96c-29.792,29.784-13.024,62.288,0,75.312
			c1.5,1.5,3.534,2.344,5.656,2.344c2.12,0.002,4.155-0.839,5.656-2.336l72-72L132,144l-65.712,65.712
			c-10.832-14.369-8.632-34.682,5.024-46.4l93.656-93.656h164.688c2.122,0,4.156-0.844,5.656-2.344l56-56L380,0z"/>
	</g>
</g>
<g>
</g>
<g>
</g>
<g>
</g>
<g>
</g>
<g>
</g>
<g>
</g>
<g>
</g>
<g>
</g>
<g>
</g>
<g>
</g>
<g>
</g>
<g>
</g>
<g>
</g>
<g>
</g>
<g>
</g>
</svg>
