<svg xmlns="http://www.w3.org/2000/svg" viewBox="0 0 507.312 507.312"><path d="M344.8 333.656h-200a8 8 0 0 0-5.656 2.344l-96 96 11.312 11.312 93.656-93.656H336c-1.664 9.496-6.888 24-23.2 24h-88v16h88c31.64 0 40-31.4 40-48a8 8 0 0 0-8-8z"/><path d="M446.456 279.992a8 8 0 0 0-11.312 0l-72 72 11.312 11.312 65.712-65.704c10.832 14.369 8.632 34.682-5.024 46.4l-93.656 93.656H176.8a8 8 0 0 0-5.656 2.344l-56 56 11.312 11.312 53.656-53.656H344.8a8.003 8.003 0 0 0 5.656-2.352l96-96c29.792-29.784 13.024-62.288 0-75.312zM451.144 64l-93.656 93.656H169.6c1.664-9.496 6.888-24 23.2-24h88v-16h-88c-31.64 0-40 31.4-40 48a8 8 0 0 0 8 8h200a8 8 0 0 0 5.656-2.344l96-96L451.144 64z"/><path d="M379.144 0l-53.656 53.656H160.8A8 8 0 0 0 155.144 56l-96 96c-29.792 29.784-13.024 62.288 0 75.312a7.997 7.997 0 0 0 5.656 2.344 8 8 0 0 0 5.656-2.336l72-72L131.144 144l-65.712 65.712c-10.832-14.369-8.632-34.682 5.024-46.4l93.656-93.656H328.8a8 8 0 0 0 5.656-2.344l56-56L379.144 0zM392.8 189.656h-232a8 8 0 0 0-8 8v68.688L115.144 304a8 8 0 0 0 5.656 13.656h232a8 8 0 0 0 8-8v-68.688l37.656-37.656a8 8 0 0 0-5.656-13.656zM347.144 232a8 8 0 0 0-2.344 5.656v64H140.112l26.344-26.344a8 8 0 0 0 2.344-5.656v-64h204.688L347.144 232z"/><path d="M192.8 229.66h128v16h-128zm0 32h96v16h-96zm112 0h16v16h-16zm136-88.004c-13.255 0-24 10.745-24 24s10.745 24 24 24 24-10.745 24-24-10.746-24-24-24zm0 32a8 8 0 1 1 0-16 8 8 0 0 1 0 16zm-368 80c-13.255 0-24 10.745-24 24s10.745 24 24 24 24-10.745 24-24-10.745-24-24-24zm0 32a8 8 0 1 1 0-16 8 8 0 0 1 0 16z"/></svg>