<?xml version="1.0" encoding="iso-8859-1"?>
<!-- Generator: Adobe Illustrator 19.0.0, SVG Export Plug-In . SVG Version: 6.00 Build 0)  -->
<svg version="1.1" id="Capa_1" xmlns="http://www.w3.org/2000/svg" xmlns:xlink="http://www.w3.org/1999/xlink" x="0px" y="0px"
	 viewBox="0 0 507.312 507.312" style="enable-background:new 0 0 507.312 507.312;" xml:space="preserve">
<g>
	<g>
		<path d="M344.8,333.656h-200c-2.122,0-4.156,0.844-5.656,2.344l-96,96l11.312,11.312l93.656-93.656H336
			c-1.664,9.496-6.888,24-23.2,24h-88v16h88c31.64,0,40-31.4,40-48C352.8,337.238,349.218,333.656,344.8,333.656z"/>
	</g>
</g>
<g>
	<g>
		<path d="M446.456,279.992c-3.124-3.123-8.188-3.123-11.312,0l-72,72l11.312,11.312l65.712-65.704
			c10.832,14.369,8.632,34.682-5.024,46.4l-93.656,93.656H176.8c-2.122,0-4.156,0.844-5.656,2.344l-56,56l11.312,11.312
			l53.656-53.656H344.8c2.123-0.003,4.157-0.849,5.656-2.352l96-96C476.248,325.52,459.48,293.016,446.456,279.992z"/>
	</g>
</g>
<g>
	<g>
		<path d="M451.144,64l-93.656,93.656H169.6c1.664-9.496,6.888-24,23.2-24h88v-16h-88c-31.64,0-40,31.4-40,48c0,4.418,3.582,8,8,8
			h200c2.122,0,4.156-0.844,5.656-2.344l96-96L451.144,64z"/>
	</g>
</g>
<g>
	<g>
		<path d="M379.144,0l-53.656,53.656H160.8c-2.122,0-4.156,0.844-5.656,2.344l-96,96c-29.792,29.784-13.024,62.288,0,75.312
			c1.499,1.5,3.534,2.344,5.656,2.344c2.12,0.002,4.155-0.839,5.656-2.336l72-72L131.144,144l-65.712,65.712
			c-10.832-14.369-8.632-34.682,5.024-46.4l93.656-93.656H328.8c2.122,0,4.156-0.844,5.656-2.344l56-56L379.144,0z"/>
	</g>
</g>
<g>
	<g>
		<path d="M392.8,189.656h-232c-4.418,0-8,3.582-8,8v68.688L115.144,304c-1.499,1.5-2.342,3.534-2.342,5.654
			c-0.001,4.418,3.58,8.001,7.998,8.002h232c4.418,0,8-3.582,8-8v-68.688l37.656-37.656c1.499-1.5,2.342-3.534,2.342-5.654
			C400.799,193.24,397.218,189.657,392.8,189.656z M347.144,232c-1.5,1.5-2.344,3.534-2.344,5.656v64H140.112l26.344-26.344
			c1.5-1.5,2.344-3.534,2.344-5.656v-64h204.688L347.144,232z"/>
	</g>
</g>
<g>
	<g>
		<rect x="192.8" y="229.66" width="128" height="16"/>
	</g>
</g>
<g>
	<g>
		<rect x="192.8" y="261.66" width="96" height="16"/>
	</g>
</g>
<g>
	<g>
		<rect x="304.8" y="261.66" width="16" height="16"/>
	</g>
</g>
<g>
	<g>
		<path d="M440.8,173.656c-13.255,0-24,10.745-24,24s10.745,24,24,24s24-10.745,24-24S454.054,173.656,440.8,173.656z
			 M440.8,205.656c-4.418,0-8-3.582-8-8c0-4.418,3.582-8,8-8c4.418,0,8,3.582,8,8C448.8,202.074,445.218,205.656,440.8,205.656z"/>
	</g>
</g>
<g>
	<g>
		<path d="M72.8,285.656c-13.255,0-24,10.745-24,24s10.745,24,24,24s24-10.745,24-24S86.055,285.656,72.8,285.656z M72.8,317.656
			c-4.418,0-8-3.582-8-8c0-4.418,3.582-8,8-8c4.418,0,8,3.582,8,8C80.8,314.074,77.218,317.656,72.8,317.656z"/>
	</g>
</g>
<g>
</g>
<g>
</g>
<g>
</g>
<g>
</g>
<g>
</g>
<g>
</g>
<g>
</g>
<g>
</g>
<g>
</g>
<g>
</g>
<g>
</g>
<g>
</g>
<g>
</g>
<g>
</g>
<g>
</g>
</svg>
