<svg xmlns="http://www.w3.org/2000/svg" viewBox="0 0 507.32 507.32"><path d="M435.316 280a8 8 0 0 0-11.312 0l-72 72 11.312 11.312 65.712-65.704c10.832 14.369 8.632 34.682-5.024 46.4l-93.656 93.656H165.66a8 8 0 0 0-5.656 2.344l-56 56 11.312 11.312 53.656-53.656H333.66a8.003 8.003 0 0 0 5.656-2.352l96-96c29.792-29.784 13.024-62.288 0-75.312zM368.004 0l-53.656 53.664H149.66a8 8 0 0 0-5.6 2.296l-97.84 96.048a49.333 49.333 0 0 0-16.112 36.056 61.198 61.198 0 0 0 18.056 39.408 8 8 0 0 0 5.496 2.192 8 8 0 0 0 5.656-2.344l72-72-11.312-11.312-65.832 65.824a40.359 40.359 0 0 1-8.064-21.992 33.92 33.92 0 0 1 11.376-24.472l95.448-93.704H317.66a8 8 0 0 0 5.656-2.344l56-56L368.004 0z"/><path d="M469.66 173.664h-24v-24h-16v24h-40a8 8 0 0 0-8 8v64h-32.334c-2.48-30.06-18.808-56.19-42.592-72h42.926a8 8 0 0 0 5.656-2.344l96-96-11.312-11.312-93.656 93.656H158.46c1.664-9.496 6.888-24 23.2-24h88v-16h-88c-31.64 0-40 31.4-40 48a8 8 0 0 0 8 8h50.926c-23.784 15.81-40.111 41.94-42.592 72H77.66a8 8 0 0 0-8 8v32h16v-24h24v48h-64v-24h-16v32a8 8 0 0 0 8 8h40v16h-16v16h24a8 8 0 0 0 8-8v-24h24a8 8 0 0 0 8-8v-56h32.334c2.48 30.06 18.808 56.19 42.592 72H133.66a8 8 0 0 0-5.656 2.344l-96 96 11.312 11.312 93.656-93.656H324.86c-1.664 9.496-6.888 24-23.2 24h-88v16h88c31.64 0 40-31.4 40-48a8 8 0 0 0-8-8h-26.999c23.798-15.809 40.145-41.936 42.656-72h40.343a8 8 0 0 0 8-8v-8h48v-16h-48v-40h64v24h16v-32a8 8 0 0 0-8-8zm-216 160c-44.183 0-80-35.817-80-80s35.817-80 80-80c44.163.048 79.952 35.837 80 80 0 44.183-35.817 80-80 80z"/><path d="M429.66 117.66h16v16h-16zm32 112h16v16h-16zm-432 24h16v16h-16zm0 88h16v16h-16zm256-87.996c0 17.673-14.327 32-32 32-17.673 0-32-14.327-32-32 0-17.673 14.327-32 32-32v-16c-26.51 0-48 21.49-48 48s21.49 48 48 48c26.499-.026 47.974-21.501 48-48h-16z"/></svg>