<svg xmlns="http://www.w3.org/2000/svg" viewBox="0 0 507.312 507.312"><path d="M349.656 358.663V227.725a95.165 95.165 0 0 0 0-3.778v-53.172c9.496 1.664 24 6.888 24 23.2v88h16v-88c0-31.64-31.4-40-48-40a8 8 0 0 0-8 8v10.853c-9.552-14.427-23.114-26.453-40-34.192-43.583-19.976-94.344-4.582-120 34.185v-10.845a8 8 0 0 0-8-8c-16.6 0-48 8.36-48 40v88h16v-88c0-16.216 14.504-21.488 24-23.2v53.311a95.165 95.165 0 0 0 0 3.778v130.8L64 452.319l11.312 11.312 96-96a8 8 0 0 0 2.344-5.656v-82.992c9.552 14.427 23.114 26.453 40 34.192v64.8c-.005.221-.005.442 0 .663.183 8.653 7.347 15.52 16 15.337h16v31.552c-.376 2.928-5.896 8.448-24 8.448h-16v16h16c16.608 0 26.32-4.062 32-8.845 5.68 4.783 15.392 8.845 32 8.845h16v-16h-16c-18.104 0-23.624-5.52-24-8v-32h16c.221.005.442.005.663 0 8.654-.183 15.52-7.347 15.337-16v-64.8c16.359-7.498 30.166-19.41 40-34.246v83.046a8 8 0 0 0 2.344 5.656l96 96 11.312-11.312-93.656-93.656zm-72 19.312h-48v-16h48v16zm0-32h-48v-16h48v16zm56-120.672c.236 32.211-19.118 62.718-50.912 75.128a8 8 0 0 0-5.088 7.448v6.096h-16v-87.359l7.008 5.607a8 8 0 0 0 4.992 1.752 8.002 8.002 0 0 0 5.016-1.744l20-16-10-12.496-15.016 12-15.024-12a8 8 0 0 0-9.992 0l-14.984 12-14.984-12-10 12.48 20 16a8 8 0 0 0 10 0l6.984-5.593v87.353h-16v-6.096a8 8 0 0 0-5.088-7.448 79.999 79.999 0 0 1-45.436-45.436 79.842 79.842 0 0 1-5.476-27.308v-1.159c-.243-32.218 19.112-62.733 50.912-75.146 41.159-16.065 87.548 4.278 103.612 45.436a79.832 79.832 0 0 1 5.476 27.307v1.178z"/><path d="M453.656 326.663V161.975a8.003 8.003 0 0 0-2.352-5.656l-96-96c-29.8-29.808-62.288-13.024-75.312 0a8 8 0 0 0 0 11.312l72 72 11.312-11.312L297.6 66.607c14.373-10.819 34.676-8.621 46.4 5.024l93.656 93.656v164.688a8 8 0 0 0 2.344 5.656l56 56 11.312-11.312-53.656-53.656zM227.312 60.319c-13.024-13.032-45.528-29.784-75.312 0l-96 96a8 8 0 0 0-2.344 5.656v164.688L0 380.319l11.312 11.312 56-56a8 8 0 0 0 2.344-5.656V165.287l93.656-93.656c11.72-13.653 32.03-15.852 46.4-5.024L144 132.319l11.312 11.312 72-72a8 8 0 0 0 0-11.312zM173.66 433.98h16v16h-16zm144 0h16v16h-16z"/></svg>