<svg xmlns="http://www.w3.org/2000/svg" viewBox="0 0 507.32 507.32"><path d="M341.66 333.664h-200a8 8 0 0 0-5.656 2.344l-96 96 11.312 11.312 93.656-93.656H332.86c-1.664 9.496-6.888 24-23.2 24h-88v16h88c31.64 0 40-31.4 40-48a8 8 0 0 0-8-8z"/><path d="M443.316 280a8 8 0 0 0-11.312 0l-72 72 11.312 11.312 65.712-65.704c10.832 14.369 8.632 34.682-5.024 46.4l-93.656 93.656H173.66a8 8 0 0 0-5.656 2.344l-56 56 11.312 11.312 53.656-53.656H341.66a8.003 8.003 0 0 0 5.656-2.352l96-96c29.792-29.784 13.024-62.288 0-75.312zm4.688-215.992l-93.656 93.656H166.46c1.664-9.496 6.888-24 23.2-24h88v-16h-88c-31.64 0-40 31.4-40 48a8 8 0 0 0 8 8h200a8 8 0 0 0 5.656-2.344l96-96-11.312-11.312z"/><path d="M376.004 0l-53.656 53.664H157.66a8 8 0 0 0-5.6 2.296l-97.84 96.048a49.333 49.333 0 0 0-16.112 36.056 61.198 61.198 0 0 0 18.056 39.408 8 8 0 0 0 5.496 2.192 8 8 0 0 0 5.656-2.344l72-72-11.312-11.312-65.832 65.824a40.359 40.359 0 0 1-8.064-21.992 33.92 33.92 0 0 1 11.376-24.472l95.448-93.704H325.66a8 8 0 0 0 5.656-2.344l56-56L376.004 0zm104 96.008L362.348 213.664H176.972l18.344-18.344-11.312-11.312-32 32a8 8 0 0 0 0 11.312l32 32 11.312-11.312-18.344-18.344H365.66a8 8 0 0 0 5.656-2.344l120-120-11.312-11.312zm-124.688 184l-32-32-11.312 11.312 18.344 18.344H141.66a8 8 0 0 0-5.656 2.344l-120 120 11.312 11.312 117.656-117.656h185.376l-18.344 18.344 11.312 11.312 32-32a8 8 0 0 0 0-11.312z"/></svg>