<svg xmlns="http://www.w3.org/2000/svg" viewBox="0 0 485.498 485.498"><path d="M334.434 311.842h-88v-160h-16v160h-96a8 8 0 0 0-5.656 2.344l-96 96 11.312 11.312 93.656-93.656h187.888c-1.664 9.496-6.888 24-23.2 24h-88v16h88c31.64 0 40-31.4 40-48a8 8 0 0 0-8-8z"/><path d="M436.09 258.178a8 8 0 0 0-11.312 0l-72 72 11.312 11.312 65.712-65.704c10.832 14.369 8.632 34.682-5.024 46.4l-93.656 93.656H166.434a8 8 0 0 0-5.656 2.344l-56 56 11.312 11.312 53.656-53.656h164.688a8.003 8.003 0 0 0 5.656-2.352l96-96c29.792-29.784 13.024-62.288 0-75.312zm-95.408-135.336l-96-120a8.287 8.287 0 0 0-12.495 0l-96 120a7.999 7.999 0 0 0 6.247 13h40v112h16v-112h24v-16h-63.352l79.352-99.2 79.352 99.2h-31.352a8 8 0 0 0-8 8v120h16v-112h40a8 8 0 0 0 6.248-13zM182.43 263.839h16v16h-16zm96 0h16v16h-16z"/></svg>