<svg xmlns="http://www.w3.org/2000/svg" viewBox="0 0 509.656 509.656"><path d="M346.512 336h-200a8 8 0 0 0-5.656 2.344l-96 96 11.312 11.312L149.824 352h187.888c-1.664 9.496-6.888 24-23.2 24h-88v16h88c31.64 0 40-31.4 40-48a8 8 0 0 0-8-8z"/><path d="M448.168 282.344a8 8 0 0 0-11.312 0l-72 72 11.312 11.312 65.712-65.712c10.828 14.37 8.629 34.68-5.024 46.4L343.2 440H178.512a8 8 0 0 0-5.656 2.344l-56 56 11.312 11.312L181.824 456h164.688a8 8 0 0 0 5.656-2.344l96-96c29.792-29.792 13.024-62.288 0-75.312zM346.512 176h-40v-40h-16v40h-24v16h63.352l-79.352 99.2L171.16 192h31.352a8 8 0 0 0 8-8v-72h-16v64h-40a8 8 0 0 0-6.248 13l96 120a8 8 0 0 0 6.248 3 8 8 0 0 0 6.248-3l96-120a8 8 0 0 0-6.248-13zm7.998-144h96v16h-96zm-304 0h96v16h-96z"/><path d="M242.51 0h16v160h-16zm-47.998 32h-32v16h32v48h16V48c.005-.221.005-.442 0-.663-.183-8.653-7.346-15.52-16-15.337zm112 0a14.654 14.654 0 0 0-.663 0c-8.653.183-15.52 7.347-15.337 16v72h16V48h32V32h-32z"/></svg>