<svg xmlns="http://www.w3.org/2000/svg" viewBox="0 0 501.707 501.707"><path d="M342.538 328.051h-200a8 8 0 0 0-5.656 2.344l-96 96 11.312 11.312 93.656-93.656h187.888c-1.664 9.496-6.888 24-23.2 24h-88v16h88c31.64 0 40-31.4 40-48a8 8 0 0 0-8-8z"/><path d="M444.194 274.395a8 8 0 0 0-11.312 0l-72 72 11.312 11.312 65.712-65.712c10.828 14.37 8.629 34.68-5.024 46.4l-93.656 93.656H174.538a8 8 0 0 0-5.656 2.344l-56 56 11.312 11.312 53.656-53.656h164.688a8 8 0 0 0 5.656-2.344l96-96c29.792-29.793 13.024-62.289 0-75.312zm-69.656-169.776V56.051a8 8 0 0 0-8-8H301.97c-3.532-24.61-22.867-43.944-47.476-47.476C223.88-3.82 195.5 17.436 191.106 48.051h-64.568a8 8 0 0 0-8 8v48.568c-24.61 3.532-43.944 22.867-47.476 47.476-4.394 30.614 16.862 58.994 47.476 63.388v48.568a8 8 0 0 0 8 8h72a8 8 0 0 0 8-8c0-22.091 17.909-40 40-40s40 17.909 40 40a8 8 0 0 0 8 8h72a8 8 0 0 0 8-8v-48.568c24.61-3.532 43.944-22.867 47.476-47.476 4.394-30.614-16.862-58.994-47.476-63.388zm-8 95.432a8 8 0 0 0-8 8v48H301.97c-3.532-24.61-22.867-43.944-47.476-47.476-30.614-4.394-58.994 16.862-63.388 47.476h-56.568v-48a8 8 0 0 0-8-8c-22.091 0-40-17.909-40-40s17.909-40 40-40a8 8 0 0 0 8-8v-48h64a8 8 0 0 0 8-8c0-22.091 17.909-40 40-40s40 17.909 40 40a8 8 0 0 0 8 8h64v48a8 8 0 0 0 8 8c22.091 0 40 17.909 40 40s-17.909 40-40 40z"/><path d="M158.538 80.051a8 8 0 0 0-8 8v32h16v-24h32v-16h-40z"/></svg>