<svg xmlns="http://www.w3.org/2000/svg" viewBox="0 0 509.654 509.654"><path d="M345.656 335.998h-200a8 8 0 0 0-5.656 2.344l-96 96 11.312 11.312 93.656-93.656h187.888c-1.664 9.496-6.888 24-23.2 24h-88v16h88c31.64 0 40-31.4 40-48a8 8 0 0 0-8-8z"/><path d="M447.312 282.342a8 8 0 0 0-11.312 0l-72 72 11.312 11.312 65.712-65.712c10.828 14.37 8.629 34.68-5.024 46.4l-93.656 93.656H177.656a8 8 0 0 0-5.656 2.344l-56 56 11.312 11.312 53.656-53.656h164.688a8 8 0 0 0 5.656-2.344l96-96c29.792-29.792 13.024-62.288 0-75.312zm-125.656-34.344a31.852 31.852 0 0 0-19.836 6.899c-6.412-13.535-20.192-22.899-36.164-22.899-15.972 0-29.753 9.364-36.164 22.899a31.852 31.852 0 0 0-19.836-6.899c-17.673 0-32 14.327-32 32s14.327 32 32 32c10.763 0 20.278-5.319 26.078-13.466 7.328 8.257 18.014 13.466 29.922 13.466 11.904-.014 22.584-5.227 29.91-13.483 5.799 8.156 15.32 13.483 26.09 13.483 17.673 0 32-14.327 32-32 0-17.673-14.327-32-32-32zm-112 48c-8.837 0-16-7.163-16-16s7.163-16 16-16 16 7.163 16 16-7.163 16-16 16zm56 0c-13.255 0-24-10.745-24-24s10.745-24 24-24 24 10.745 24 24-10.745 24-24 24zm56 0c-8.837 0-16-7.163-16-16s7.163-16 16-16 16 7.163 16 16-7.163 16-16 16zm141.656-189.656l-40-40L412 77.654l26.344 26.344H329.656a14.654 14.654 0 0 0-.663 0c-8.653.183-15.52 7.346-15.337 16v48h16v-48h108.688L412 146.342l11.312 11.312 40-40a8 8 0 0 0 0-11.312zm-192-104a8 8 0 0 0-11.312 0l-40 40 11.312 11.312 26.344-26.344v124.688h16V27.31L300 53.654l11.312-11.312-40-40zM313.66 184h16v48h-16zm-112 0h16v48h-16zm56-16h16v48h-16zm-56.004-64.002H92.968l26.344-26.344L108 66.342l-40 40a8 8 0 0 0 0 11.312l40 40 11.312-11.312-26.344-26.344h108.688v48h16v-48c.005-.221.005-.442 0-.663-.183-8.653-7.346-15.52-16-15.337z"/></svg>