<svg xmlns="http://www.w3.org/2000/svg" viewBox="0 0 501.656 501.656"><path d="M342.512 328h-200a8 8 0 0 0-5.656 2.344l-96 96 11.312 11.312L145.824 344h187.888c-1.664 9.496-6.888 24-23.2 24h-88v16h88c31.64 0 40-31.4 40-48a8 8 0 0 0-8-8z"/><path d="M444.168 274.344a8 8 0 0 0-11.312 0l-72 72 11.312 11.312 65.712-65.712c10.828 14.37 8.629 34.68-5.024 46.4L339.2 432H174.512a8 8 0 0 0-5.656 2.344l-56 56 11.312 11.312L177.824 448h164.688a8 8 0 0 0 5.656-2.344l96-96c29.792-29.792 13.024-62.288 0-75.312zM390.256 144C386.289 79.682 334.83 28.224 270.512 24.256V0h-16v24.256C190.195 28.224 138.736 79.682 134.769 144h-24.256v16h24.256c3.967 64.318 55.426 115.776 119.743 119.744V304h16v-24.265C334.794 275.697 386.21 224.282 390.247 160h24.265v-16h-24.256zM270.512 40.296c55.45 3.97 99.735 48.254 103.705 103.704h-32.104c-3.753-37.794-33.806-67.848-71.601-71.601V40.296zm-16-.009v32.112c-37.794 3.753-67.848 33.806-71.601 71.601H150.8c3.916-55.479 48.234-99.796 103.712-103.713zm.001 223.426C199.034 259.796 154.716 215.479 150.8 160h32.112c3.753 37.794 33.806 67.848 71.601 71.601v32.112zM254.512 192v23.484c-28.945-3.612-51.872-26.54-55.484-55.484h23.484v-16h-23.484c3.612-28.945 26.54-51.872 55.484-55.484V112h16V88.524c28.927 3.639 51.837 26.549 55.476 55.476h-23.476v16h23.484c-3.612 28.945-26.54 51.872-55.484 55.484V192h-16zm16 71.713v-32.12c37.773-3.789 67.803-33.819 71.592-71.592h32.12c-3.915 55.478-48.233 99.795-103.712 103.712z"/><path d="M254.51 144h16v16h-16z"/></svg>