<svg xmlns="http://www.w3.org/2000/svg" viewBox="0 0 507.312 507.312"><path d="M452 64l-93.656 93.656H170.456c1.664-9.496 6.888-24 23.2-24h88v-16h-88c-31.64 0-40 31.4-40 48a8 8 0 0 0 8 8h42.926c-25.871 17.198-42.926 46.605-42.926 80s17.055 62.802 42.926 80h-58.926A8 8 0 0 0 140 336l-96 96 11.312 11.312 93.656-93.656h187.888c-1.664 9.496-6.888 24-23.2 24h-88v16h88c31.64 0 40-31.4 40-48a8 8 0 0 0-8-8h-34.999c25.887-17.196 42.963-46.6 42.999-80 0-33.395-17.055-62.802-42.926-80h50.926a8 8 0 0 0 5.656-2.344l96-96L452 64zM184.331 221.656h25.324v24h-31.6a79.474 79.474 0 0 1 6.276-24zm25.325 96.001a80.436 80.436 0 0 1-16.001-16.001h16.001v16.001zm0-32.001h-25.324a79.446 79.446 0 0 1-6.277-24h31.601v24zm0-80h-16.001a80.436 80.436 0 0 1 16.001-16.001v16.001zm40 127.601a79.474 79.474 0 0 1-24-6.276v-25.324h24v31.6zm0-47.601h-24v-24h24v24zm0-40h-24v-24h24v24zm0-40h-24v-25.324a79.446 79.446 0 0 1 24-6.277v31.601zm40 121.324a79.446 79.446 0 0 1-24 6.277v-31.601h24v25.324zm0-41.324h-24v-24h24v24zm0-40h-24v-24h24v24zm0-39.999h-24v-31.593a79.553 79.553 0 0 1 24 6.299v25.294zm16 112v-16.001h16.001a80.436 80.436 0 0 1-16.001 16.001zm25.325-32.001h-25.324v-24h31.6a79.474 79.474 0 0 1-6.276 24zm-.031-64a79.552 79.552 0 0 1 6.298 24h-31.592v-24h25.294zm-9.338-16h-15.956V189.7a80.542 80.542 0 0 1 15.956 15.956z"/><path d="M447.312 280A8 8 0 0 0 436 280l-72 72 11.312 11.312 65.712-65.712c10.828 14.37 8.629 34.68-5.024 46.4l-93.656 93.656H177.656A8 8 0 0 0 172 440l-56 56 11.312 11.312 53.656-53.656h164.688a8 8 0 0 0 5.656-2.344l96-96c29.792-29.792 13.024-62.288 0-75.312zM380 0l-53.656 53.656H161.656A8 8 0 0 0 156 56l-96 96c-29.792 29.784-13.024 62.288 0 75.312a8 8 0 0 0 5.656 2.344 8 8 0 0 0 5.656-2.336l72-72L132 144l-65.712 65.712c-10.832-14.369-8.632-34.682 5.024-46.4l93.656-93.656h164.688a8 8 0 0 0 5.656-2.344l56-56L380 0z"/></svg>